<svg xmlns="http://www.w3.org/2000/svg" width="1000" height="402.473" viewBox="-215.19 -86.608 1000 402.473"><path fill="#ED1D24" d="M-215.19-86.608h1000v402.473h-1000z"/><path fill="#FFF" d="M631.063 7.184V-54.42h-171.42l-28.19 205.804-27.896-205.802H341.74L348.665.497c-7.14-14.068-32.45-54.915-88.146-54.915-.368-.024-61.902 0-61.902 0l-.237 299.974-45.056-299.974-80.96-.047-46.61 310.814.023-310.77h-77.483L-79.64 120.165l-27.207-174.583h-77.508v337.906h61.036v-162.87l27.765 162.866h32.45l27.373-162.866v162.866H81.935l7.14-51.995h47.374l7.115 51.994 115.52.07h.095v-.07h.144V173.8l14.162-2.064 29.32 111.82h59.75l-.023-.072h.176l-38.474-131.057c19.498-14.422 41.513-51.047 35.654-86.084v-.023c.07.474 36.316 217.38 36.316 217.38l71.065-.216L515.83-22.8v306.285h115.236v-60.773h-54.7v-77.496h54.7V83.518h-54.7V7.184h54.697zM96.265 177.904l16.758-144.46 17.4 144.46H96.265zm177.42-66.703c-4.698 2.28-9.596 3.418-14.364 3.418V5.928c.084 0 .18-.023.298-.023 4.78-.024 40.42 1.446 40.42 53.774 0 27.372-12.122 44.62-26.354 51.52m480.36 111.465v60.772H641.63V-54.465h60.526v277.13h51.888z"/></svg>